<?xml version="1.0" encoding="UTF-8"?>
<svg id="Layer_2" data-name="Layer 2" xmlns="http://www.w3.org/2000/svg" viewBox="0 0 1490.47 752.44">
  <defs>
    <style>
      .cls-1 {
        fill: #fff;
      }

      .cls-2 {
        fill: #32b669;
      }
    </style>
  </defs>
  <g id="Layer_1-2" data-name="Layer 1">
    <g>
      <path class="cls-1" d="m52.48,347.74v2.14c0,7.92,4.59,11.87,13.77,11.87h151.49c7.91,0,15.08.75,21.49,2.26,6.41,1.51,11.87,3.92,16.38,7.24s7.96,7.72,10.33,13.18c2.38,5.46,3.56,12.07,3.56,19.83v16.38c0,7.92-1.19,14.57-3.56,19.95-2.37,5.38-5.82,9.74-10.33,13.06s-9.97,5.74-16.38,7.24c-6.41,1.51-13.58,2.26-21.49,2.26H21.85c-6.65,0-9.97-3.32-9.97-9.97v-19c0-6.65,3.32-9.97,9.97-9.97h189.72c9.18,0,13.77-3.96,13.77-11.87v-2.14c0-7.91-4.59-11.87-13.77-11.87H60.08c-7.92,0-15.08-.75-21.49-2.26-6.41-1.5-11.87-3.92-16.38-7.24-4.51-3.32-7.96-7.68-10.33-13.06-2.38-5.38-3.56-12.03-3.56-19.95v-16.38c0-7.75,1.19-14.37,3.56-19.83,2.37-5.46,5.82-9.85,10.33-13.18,4.51-3.32,9.97-5.74,16.38-7.24,6.41-1.5,13.57-2.26,21.49-2.26h193.52c6.65,0,9.97,3.32,9.97,9.97v19c0,6.65-3.32,9.97-9.97,9.97H66.25c-9.18,0-13.77,3.96-13.77,11.87Z"/>
      <path class="cls-1" d="m302.04,296.92h24.22c6.65,0,9.97,3.32,9.97,9.97v53.66h172.87v-53.66c0-6.65,3.32-9.97,9.97-9.97h24.22c6.65,0,9.97,3.32,9.97,9.97v146.27c0,6.65-3.32,9.97-9.97,9.97h-24.22c-6.65,0-9.97-3.32-9.97-9.97v-53.66h-172.87v53.66c0,6.65-3.32,9.97-9.97,9.97h-24.22c-6.65,0-9.97-3.32-9.97-9.97v-146.27c0-6.65,3.32-9.97,9.97-9.97Z"/>
      <path class="cls-1" d="m626.87,453.16c0,6.65-3.32,9.97-9.97,9.97h-24.22c-6.65,0-9.97-3.32-9.97-9.97v-146.27c0-6.65,3.32-9.97,9.97-9.97h24.22c6.65,0,9.97,3.32,9.97,9.97v146.27Z"/>
      <path class="cls-1" d="m750.82,452.93l-106.14-144.85c-1.74-2.38-2.14-4.83-1.19-7.36.95-2.53,2.85-3.8,5.7-3.8h30.63c3.8,0,6.8.59,9.02,1.78,2.21,1.19,4.19,2.97,5.94,5.34l87.14,120.15,87.14-120.15c1.74-2.37,3.72-4.16,5.94-5.34,2.21-1.19,5.22-1.78,9.02-1.78h29.44c2.85,0,4.75,1.27,5.7,3.8.95,2.53.55,4.99-1.19,7.36l-106.14,144.85c-4.91,6.81-11.87,10.21-20.9,10.21h-19.23c-9.02,0-15.99-3.4-20.9-10.21Z"/>
      <path class="cls-1" d="m979.96,453.16c0,6.65-3.32,9.97-9.97,9.97h-24.22c-6.65,0-9.97-3.32-9.97-9.97v-146.27c0-6.65,3.32-9.97,9.97-9.97h194.71c7.91,0,15,.75,21.25,2.26,6.25,1.51,11.55,3.92,15.91,7.24,4.35,3.32,7.68,7.72,9.97,13.18,2.29,5.46,3.44,12.07,3.44,19.83v11.4c0,10.92-2.1,19.47-6.29,25.64-4.2,6.17-10.33,10.61-18.4,13.3,8.07,2.69,14.21,7.16,18.4,13.42,4.19,6.25,6.29,14.76,6.29,25.53v24.46c0,6.65-3.32,9.97-9.97,9.97h-24.22c-6.65,0-9.97-3.32-9.97-9.97v-25.17c0-6.33-1.78-11.04-5.34-14.13s-8.67-4.63-15.32-4.63h-146.27v43.93Zm166.93-105.43c0-7.91-4.59-11.87-13.77-11.87h-153.16v34.43h153.16c9.18,0,13.77-3.96,13.77-11.87v-10.69Z"/>
      <path class="cls-1" d="m1214.56,346.55c0-15.83,4.23-28.06,12.7-36.69,8.47-8.63,20.7-12.94,36.69-12.94h163.6c15.99,0,28.22,4.31,36.69,12.94,8.47,8.63,12.7,20.86,12.7,36.69v106.62c0,6.65-3.32,9.97-9.97,9.97h-24.22c-6.65,0-9.97-3.32-9.97-9.97v-36.81h-174.05v36.81c0,6.65-3.33,9.97-9.97,9.97h-24.22c-6.65,0-9.97-3.32-9.97-9.97v-106.62Zm218.22,6.89c0-11.71-5.86-17.57-17.57-17.57h-138.91c-11.72,0-17.57,5.86-17.57,17.57v23.98h174.05v-23.98Z"/>
      <path class="cls-2" d="m317.47,659.36c0,7.92-1.19,14.57-3.56,19.95-2.37,5.38-5.82,9.74-10.33,13.06s-9.97,5.74-16.38,7.24c-6.41,1.51-13.58,2.26-21.49,2.26H102.11c-15.99,0-28.22-4.31-36.69-12.94-8.47-8.63-12.7-20.85-12.7-36.69v-66.96c0-15.83,4.23-28.06,12.7-36.69,8.47-8.63,20.7-12.94,36.69-12.94h195.9c6.65,0,9.97,3.32,9.97,9.97v19c0,6.65-3.32,9.97-9.97,9.97H114.45c-11.72,0-17.57,5.86-17.57,17.57v53.19c0,11.72,5.85,17.57,17.57,17.57h145.08c9.18,0,13.77-3.96,13.77-11.87v-14.01h-59.84c-6.65,0-9.97-3.32-9.97-9.97v-16.62c0-6.65,3.32-9.97,9.97-9.97h94.03c6.65,0,9.97,3.32,9.97,9.97v48.92Z"/>
      <path class="cls-2" d="m385.62,691.89c0,6.65-3.32,9.97-9.97,9.97h-24.22c-6.65,0-9.97-3.32-9.97-9.97v-146.27c0-6.65,3.32-9.97,9.97-9.97h194.71c7.91,0,15,.75,21.25,2.26,6.25,1.51,11.55,3.92,15.91,7.24,4.35,3.32,7.68,7.72,9.97,13.18,2.29,5.46,3.44,12.07,3.44,19.83v11.4c0,10.92-2.1,19.47-6.29,25.64-4.2,6.17-10.33,10.61-18.4,13.3,8.07,2.69,14.21,7.16,18.4,13.42,4.19,6.25,6.29,14.76,6.29,25.53v24.46c0,6.65-3.32,9.97-9.97,9.97h-24.22c-6.65,0-9.97-3.32-9.97-9.97v-25.17c0-6.33-1.78-11.04-5.34-14.13s-8.67-4.63-15.32-4.63h-146.27v43.93Zm166.93-105.43c0-7.91-4.59-11.87-13.77-11.87h-153.16v34.43h153.16c9.18,0,13.77-3.96,13.77-11.87v-10.69Z"/>
      <path class="cls-2" d="m663.2,645.35c0,11.72,5.85,17.57,17.57,17.57h184.74c6.65,0,9.97,3.32,9.97,9.97v19c0,6.65-3.32,9.97-9.97,9.97h-197.08c-15.99,0-28.22-4.31-36.69-12.94-8.47-8.63-12.7-20.85-12.7-36.69v-66.96c0-15.83,4.23-28.06,12.7-36.69,8.47-8.63,20.7-12.94,36.69-12.94h197.08c6.65,0,9.97,3.32,9.97,9.97v19c0,6.65-3.32,9.97-9.97,9.97h-184.74c-11.72,0-17.57,5.86-17.57,17.57v8.31h178.56c6.65,0,9.97,3.32,9.97,9.97v16.62c0,6.65-3.32,9.97-9.97,9.97h-178.56v8.31Z"/>
      <path class="cls-2" d="m940.78,645.35c0,11.72,5.85,17.57,17.57,17.57h184.74c6.65,0,9.97,3.32,9.97,9.97v19c0,6.65-3.32,9.97-9.97,9.97h-197.08c-15.99,0-28.22-4.31-36.69-12.94-8.47-8.63-12.7-20.85-12.7-36.69v-66.96c0-15.83,4.23-28.06,12.7-36.69,8.47-8.63,20.7-12.94,36.69-12.94h197.08c6.65,0,9.97,3.32,9.97,9.97v19c0,6.65-3.32,9.97-9.97,9.97h-184.74c-11.72,0-17.57,5.86-17.57,17.57v8.31h178.56c6.65,0,9.97,3.32,9.97,9.97v16.62c0,6.65-3.32,9.97-9.97,9.97h-178.56v8.31Z"/>
      <path class="cls-2" d="m1188.08,548.59c8.47-8.63,20.7-12.94,36.69-12.94h162.42c15.99,0,28.22,4.31,36.69,12.94,8.47,8.63,12.7,20.86,12.7,36.69v106.62c0,6.65-3.32,9.97-9.97,9.97h-24.22c-6.65,0-9.97-3.32-9.97-9.97v-99.73c0-11.71-5.86-17.57-17.57-17.57h-137.72c-11.72,0-17.57,5.86-17.57,17.57v99.73c0,6.65-3.33,9.97-9.97,9.97h-24.22c-6.65,0-9.97-3.32-9.97-9.97v-106.62c0-15.83,4.23-28.06,12.7-36.69Z"/>
    </g>
    <path class="cls-2" d="m445.56,0h0s0,0,0,0c-32.74,122.38,39.93,248.13,162.31,280.86h0s0,0,0,0C640.61,158.49,567.94,32.74,445.56,0Zm90.03,134.63l18.93-10.9c2.2-1.27,4.84.73,4.23,3.19l-24.96,100.59c-.79,3.18-5.42,2.79-5.67-.48l-5.97-78.53c-.16-2.11-2.47-3.34-4.31-2.28l-18.93,10.9c-2.2,1.27-4.84-.73-4.23-3.19l24.96-100.59c.79-3.18,5.42-2.79,5.67.48l5.97,78.53c.16,2.11,2.47,3.34,4.31,2.28Z"/>
  </g>
</svg>